<?xml version="1.0" standalone="no"?>
<!DOCTYPE svg PUBLIC "-//W3C//DTD SVG 20010904//EN"
 "http://www.w3.org/TR/2001/REC-SVG-20010904/DTD/svg10.dtd">
<svg version="1.0" xmlns="http://www.w3.org/2000/svg"
 width="500.000000pt" height="500.000000pt" viewBox="0 0 500.000000 500.000000"
 preserveAspectRatio="xMidYMid meet">

<g transform="translate(0.000000,500.000000) scale(0.100000,-0.100000)"
fill="#000000" stroke="none">
<path d="M2500 4720 c0 -41 -27 -107 -52 -127 -7 -6 -46 -13 -87 -17 -153 -13
-370 -61 -513 -112 -92 -33 -249 -106 -287 -134 l-30 -21 -20 47 c-24 54 -26
67 -6 40 8 -11 18 -17 21 -13 9 8 -58 137 -68 131 -4 -3 -8 -21 -8 -41 0 -37
-7 -39 -65 -18 -18 6 -17 5 3 -12 12 -10 35 -38 51 -61 15 -23 31 -39 34 -35
10 9 36 -28 36 -52 0 -18 -1 -19 -12 -3 -12 15 -14 15 -25 -3 -7 -10 -17 -19
-22 -19 -24 0 -220 -147 -220 -164 0 -3 15 -7 32 -11 119 -22 148 -42 148
-100 0 -33 -27 -78 -49 -83 -8 -2 -25 2 -38 9 -19 10 -30 9 -62 -5 -24 -11
-47 -15 -61 -11 -21 7 -22 11 -17 79 l5 71 -53 51 c-29 29 -65 68 -81 89 -26
34 -29 36 -41 19 -7 -10 -13 -35 -13 -57 0 -31 -4 -40 -21 -44 -19 -5 -18 -8
14 -37 24 -22 37 -46 47 -85 13 -54 13 -55 -16 -81 -16 -14 -60 -61 -98 -105
-38 -44 -73 -81 -78 -83 -4 -2 -8 -12 -8 -22 0 -10 -4 -21 -10 -25 -5 -3 -38
-50 -74 -104 -68 -103 -130 -222 -186 -356 -19 -44 -39 -86 -45 -92 -13 -16
-139 -3 -158 16 -9 9 -2 38 30 134 66 189 69 197 85 217 16 18 25 40 33 77 2
10 7 27 11 38 5 14 4 17 -3 10 -21 -20 -143 -263 -179 -355 -32 -85 -36 -102
-31 -157 6 -56 4 -64 -16 -79 -20 -15 -20 -16 -2 -9 22 7 97 22 161 31 61 9
118 -29 64 -43 -11 -3 -23 -19 -29 -37 -13 -45 -49 -239 -59 -326 -10 -77 -7
-107 4 -52 4 18 11 32 16 32 18 0 -10 -63 -30 -66 -4 0 -24 -8 -44 -17 -46
-21 -102 -22 -118 -2 -9 11 -10 40 -6 107 7 95 12 124 45 263 14 58 16 82 7
87 -19 13 -44 9 -50 -9 -12 -30 -55 -295 -62 -380 -6 -72 -4 -85 15 -116 11
-19 21 -45 21 -59 0 -24 1 -25 62 -16 48 6 66 5 83 -6 32 -21 63 -92 71 -161
3 -33 15 -86 25 -117 11 -32 19 -66 19 -77 0 -39 -155 -103 -174 -72 -8 13
-42 189 -56 293 -14 102 -29 130 -55 108 -15 -13 -17 -26 -12 -95 8 -109 55
-351 78 -401 10 -22 25 -72 33 -110 23 -113 193 -470 255 -539 15 -16 39 -50
53 -75 14 -25 64 -94 109 -155 67 -86 94 -114 133 -134 38 -19 53 -34 64 -63
11 -29 41 -58 131 -126 175 -134 249 -182 280 -182 17 0 37 -10 52 -26 85 -91
612 -268 859 -288 71 -5 69 -5 -67 25 -50 11 -98 28 -105 36 -12 15 -8 16 32
9 67 -10 320 -35 358 -36 24 0 35 6 43 23 8 18 9 15 5 -17 -3 -22 -11 -43 -18
-48 -10 -6 -10 -8 -1 -8 7 0 17 9 23 20 12 23 74 28 84 8 3 -7 4 7 2 32 -4 41
-3 42 7 18 10 -26 13 -27 71 -22 34 3 106 12 160 20 55 9 119 16 143 17 24 0
43 4 43 9 0 4 5 8 10 8 6 0 10 -8 10 -18 0 -28 11 -34 25 -15 11 15 17 15 40
5 15 -7 30 -10 33 -7 4 3 -4 8 -16 12 -12 3 -22 13 -22 23 0 14 13 21 53 30
67 15 303 94 341 114 46 23 63 1 29 -37 -18 -20 -18 -20 17 -2 46 23 45 22 30
40 -16 19 -5 32 14 16 10 -8 16 -9 21 -1 3 5 15 10 27 10 19 0 19 1 5 24 -16
24 -16 24 38 46 112 46 377 222 408 272 8 12 7 24 -1 42 -14 32 -47 34 -99 6
-21 -11 -46 -20 -56 -20 -25 0 -57 -18 -57 -33 -1 -15 -35 -57 -48 -57 -5 0
-30 -11 -56 -25 -26 -14 -50 -24 -54 -23 -4 1 -29 -8 -56 -20 -27 -12 -64 -24
-81 -26 -29 -4 -34 -1 -38 22 -3 14 -3 31 -1 36 3 6 55 39 117 73 104 58 117
63 175 63 63 0 76 9 45 32 -12 8 -18 25 -17 48 1 19 -1 40 -5 45 -8 13 -41 16
-41 3 0 -5 -10 0 -22 12 -25 23 -32 24 -57 10 -12 -6 -31 -6 -55 1 -34 10 -36
12 -36 54 0 35 6 52 28 76 25 27 33 30 86 30 43 0 67 -5 85 -19 28 -20 61 -77
59 -102 -2 -43 3 -90 10 -90 4 0 15 14 24 30 9 17 24 30 32 30 20 0 86 -68
122 -125 28 -43 31 -45 76 -45 44 0 49 3 102 64 31 35 56 66 56 70 0 5 -35
-21 -66 -52 -7 -6 -16 -12 -21 -12 -5 0 -17 -10 -27 -22 -18 -21 -19 -21 -32
-3 -18 24 -18 35 0 35 15 0 71 59 176 185 41 50 78 92 82 93 4 2 8 13 8 25 0
18 2 19 10 7 15 -23 12 -73 -7 -100 l-16 -25 26 24 c31 28 33 53 12 104 -8 20
-15 42 -15 48 0 8 4 8 15 -1 8 -7 15 -19 15 -26 0 -19 30 -18 58 2 22 15 30
44 12 44 -5 0 -12 10 -15 23 -4 16 15 66 64 167 76 156 196 502 207 595 6 45
4 54 -12 63 -24 12 -48 3 -71 -28 -26 -35 -41 -69 -47 -110 -4 -19 -13 -48
-22 -65 -8 -16 -27 -59 -41 -95 -29 -73 -53 -130 -89 -207 -13 -28 -24 -55
-24 -58 0 -4 -13 -27 -30 -51 -16 -25 -33 -56 -36 -70 -3 -13 -14 -30 -23 -37
-22 -15 -31 -31 -37 -61 -2 -14 -16 -38 -32 -54 -49 -53 -72 -84 -72 -98 0 -8
-4 -14 -9 -14 -5 0 -19 -16 -32 -35 -13 -19 -29 -35 -35 -35 -6 0 -16 -11 -22
-25 -6 -14 -16 -25 -22 -25 -6 0 -8 -4 -5 -10 3 -5 -5 -21 -19 -35 -14 -14
-28 -20 -31 -15 -3 5 -24 15 -45 21 -22 7 -40 17 -40 22 0 5 34 44 76 86 185
183 330 413 429 676 50 134 72 207 86 288 12 70 28 97 58 97 24 0 147 -45 176
-64 27 -18 28 -16 40 56 6 32 4 38 -20 54 -25 16 -27 21 -21 66 4 27 3 48 -3
48 -22 0 -67 -26 -64 -37 7 -19 -75 25 -87 47 -9 16 -6 22 15 36 21 14 41 16
110 10 l85 -6 0 29 c0 22 -6 31 -28 40 -27 11 -27 12 -24 90 5 98 -20 272 -60
421 -17 63 -33 126 -36 140 l-5 25 22 -24 c12 -13 30 -53 41 -88 23 -75 44
-116 34 -68 -16 82 -57 193 -79 218 -19 21 -25 39 -25 73 l0 45 -35 -7 c-35
-6 -36 -6 -24 20 14 29 20 31 38 14 19 -19 2 20 -68 160 -79 158 -124 230
-237 383 -85 115 -122 149 -159 149 -22 0 -45 29 -45 58 0 15 -10 39 -23 53
-24 28 -192 170 -244 207 -36 26 -45 14 -13 -18 11 -11 20 -25 20 -31 0 -5 5
-7 10 -4 6 3 10 2 10 -4 0 -5 36 -39 80 -76 115 -96 115 -96 40 -166 -56 -51
-65 -56 -91 -49 -42 12 -49 19 -49 45 0 13 -3 31 -6 40 -6 14 -8 14 -25 -1
-13 -11 -19 -31 -19 -58 0 -53 -10 -66 -51 -71 -19 -3 -35 -9 -37 -15 -2 -6
-8 -7 -13 -4 -9 5 -76 -39 -90 -59 -25 -36 -74 53 -66 116 9 65 65 107 144
107 21 0 48 7 60 15 22 15 25 29 39 195 l6 76 -33 25 c-43 32 -358 191 -371
187 -6 -2 3 -10 19 -18 15 -8 32 -21 36 -27 4 -7 15 -13 22 -13 8 0 15 -4 15
-9 0 -5 10 -13 23 -18 52 -19 156 -88 166 -110 14 -31 13 -119 -2 -161 l-12
-32 -55 37 c-138 93 -320 180 -511 244 -134 44 -390 99 -466 99 -47 0 -54 3
-77 33 -14 18 -32 49 -40 69 -12 28 -20 35 -35 31 -15 -4 -24 2 -32 21 -18 38
-29 32 -29 -14z m93 -128 c15 -26 38 -62 52 -80 20 -28 22 -37 13 -62 -9 -29
-15 -32 -70 -44 -23 -5 -28 -12 -28 -36 0 -29 -2 -30 -42 -30 -64 0 -85 9 -98
40 -17 41 -5 79 42 136 22 27 51 66 64 87 14 20 28 37 32 37 4 0 19 -22 35
-48z m-303 -231 c6 -31 13 -68 16 -83 5 -26 3 -28 -24 -28 -29 0 -31 2 -37 55
-4 30 -4 76 0 102 6 43 8 46 21 29 7 -10 18 -44 24 -75z m577 4 c-9 -96 -20
-125 -46 -118 -12 3 -21 9 -21 14 0 21 31 153 41 170 20 38 32 9 26 -66z
m-783 -39 c13 -28 27 -66 31 -83 6 -30 4 -33 -18 -33 -18 0 -28 8 -35 28 -12
30 -32 124 -32 149 0 27 27 -3 54 -61z m701 53 c10 -32 -5 -119 -20 -119 -21
0 -28 17 -27 66 2 61 33 97 47 53z m278 -79 c-19 -86 -40 -117 -64 -93 -16 16
12 123 43 165 34 49 42 21 21 -72z m-856 49 c7 -19 12 -53 12 -75 1 -39 -1
-42 -29 -46 -35 -5 -44 3 -60 57 -17 57 -10 88 20 96 37 10 44 6 57 -32z m153
21 c17 -9 40 -65 40 -97 0 -7 -11 -13 -25 -13 -29 0 -45 30 -45 86 0 37 2 39
30 24z m633 -10 c9 -8 -11 -110 -25 -127 -10 -13 -55 -8 -72 7 -10 9 10 108
25 127 11 13 55 9 72 -7z m-987 -67 c8 -21 18 -52 21 -68 4 -26 1 -33 -21 -43
-52 -23 -75 -16 -96 31 -11 23 -20 54 -20 69 0 22 6 29 33 37 56 16 66 13 83
-26z m1188 21 c43 -8 45 -20 15 -99 -23 -61 -34 -66 -94 -41 -42 18 -43 33
-10 105 17 36 30 51 39 48 8 -3 31 -9 50 -13z m-1364 -8 c0 -7 7 -19 15 -26 8
-6 24 -37 35 -68 18 -49 19 -57 6 -70 -25 -25 -42 -7 -64 71 -26 89 -27 107
-7 107 8 0 15 -6 15 -14z m1466 -51 c-20 -75 -47 -125 -67 -125 -30 0 -30 16
-2 84 46 112 96 142 69 41z m-1506 -65 c28 -55 26 -77 -12 -100 -50 -30 -72
-26 -102 20 -31 47 -33 71 -6 95 19 17 78 35 93 28 4 -3 16 -22 27 -43z m1030
29 c315 -46 620 -187 841 -389 147 -134 268 -261 297 -310 14 -25 33 -51 42
-58 13 -11 13 -12 0 -6 -8 4 0 -8 18 -26 18 -18 30 -35 27 -38 -2 -3 3 -11 13
-19 9 -8 11 -12 5 -8 -9 4 -11 1 -7 -9 3 -9 10 -13 15 -10 5 3 6 -3 2 -12 -5
-13 -3 -15 7 -9 8 5 11 4 6 -3 -3 -6 3 -28 14 -49 11 -21 20 -43 20 -50 0 -7
4 -13 9 -13 4 0 25 -42 46 -92 20 -51 41 -102 46 -113 34 -81 85 -336 94 -470
11 -169 -46 -457 -131 -660 -168 -404 -522 -760 -929 -933 -209 -89 -363 -125
-598 -142 -328 -24 -656 47 -965 210 -148 78 -261 164 -410 315 -221 223 -344
418 -432 684 -21 63 -40 108 -42 100 -3 -8 -8 3 -12 25 -4 21 -5 41 -2 44 3 3
6 -5 6 -18 0 -13 3 -21 6 -17 3 3 1 29 -5 56 -6 28 -16 74 -22 103 -17 76 -13
366 7 463 48 240 134 456 258 645 86 132 239 307 329 374 36 28 75 62 86 76
26 36 183 141 291 196 170 86 353 144 515 163 50 6 101 12 115 14 52 6 368 -4
440 -14z m637 -12 c14 -13 12 -21 -17 -76 -36 -66 -46 -71 -105 -47 -41 17
-43 30 -13 98 l21 50 49 -4 c27 -3 56 -12 65 -21z m-1806 -106 c34 -53 36 -67
10 -74 -26 -6 -43 14 -81 95 -55 118 -11 105 71 -21z m1891 69 c-3 -37 -69
-150 -87 -150 -44 0 -30 61 34 148 37 49 57 50 53 2z m-2032 -71 c25 -27 42
-39 50 -34 9 5 11 4 6 -3 -4 -7 -2 -12 4 -12 6 0 9 -4 6 -9 -4 -5 -2 -21 4
-35 6 -17 6 -27 -1 -32 -17 -10 -54 22 -93 79 -59 90 -43 119 24 46z m2115 11
c10 -16 -41 -117 -65 -130 -36 -20 -47 2 -25 51 34 75 72 108 90 79z m636
-127 c16 -33 50 -81 100 -143 82 -102 269 -450 269 -502 0 -10 -14 -24 -32
-32 -42 -19 -118 -25 -118 -10 0 6 -6 24 -14 40 -8 16 -22 47 -32 69 -74 164
-331 503 -370 488 -8 -3 -14 -1 -14 4 0 19 46 51 93 64 26 7 47 19 47 25 0 11
17 20 46 23 6 0 17 -11 25 -26z m-2839 -105 c-8 -8 -9 -4 -5 13 4 13 8 18 11
10 2 -7 -1 -18 -6 -23z m-85 -54 c-3 -3 -12 -4 -19 -1 -8 3 -5 6 6 6 11 1 17
-2 13 -5z m2697 -13 c7 -10 -65 -85 -121 -128 -25 -19 -37 -23 -45 -15 -12 12
17 43 105 114 54 42 53 42 61 29z m-3079 -17 c-9 -9 -23 -28 -32 -41 -9 -13
-18 -22 -20 -19 -6 6 49 76 60 76 5 0 1 -7 -8 -16z m182 -33 c32 -26 66 -57
76 -68 16 -18 16 -21 1 -33 -14 -12 -25 -4 -90 61 -40 41 -74 77 -74 82 0 19
34 3 87 -42z m123 -33 c0 -16 -34 -8 -57 14 -35 33 -28 39 17 16 22 -12 40
-25 40 -30z m2800 -27 c0 -14 -69 -65 -77 -57 -12 11 39 56 75 65 1 1 2 -3 2
-8z m59 -37 c-23 -25 -132 -104 -143 -104 -4 0 -6 9 -6 19 0 22 74 91 122 114
44 22 59 5 27 -29z m-3064 -10 c74 -45 89 -63 70 -83 -19 -20 -52 -2 -111 59
-70 72 -54 81 41 24z m75 1 c13 -14 20 -25 16 -25 -13 0 -66 34 -66 42 0 16
27 7 50 -17z m3069 -77 c17 -17 31 -35 31 -40 0 -10 -119 -98 -133 -98 -21 0
-47 34 -47 61 0 21 12 37 51 68 29 23 55 41 59 41 4 0 22 -14 39 -32z m-3171
-23 c28 -20 52 -39 52 -43 0 -4 -14 -23 -30 -42 l-29 -35 -37 20 c-20 11 -50
32 -67 48 l-30 28 28 29 c16 17 36 30 45 30 8 0 39 -16 68 -35z m-90 -97 c57
-37 72 -55 56 -71 -15 -14 -164 85 -164 109 0 22 32 10 108 -38z m3342 42 c0
-20 -164 -115 -181 -105 -15 10 8 33 75 77 56 36 106 49 106 28z m120 -75 c0
-11 -14 7 -31 40 -7 13 -3 12 10 -5 11 -14 21 -29 21 -35z m-65 -52 c14 -21
25 -50 25 -65 0 -18 5 -28 15 -28 21 0 19 -9 -7 -31 l-23 -19 34 7 c23 4 32 3
28 -4 -4 -6 -22 -10 -39 -8 -18 1 -46 -5 -62 -13 -75 -37 -121 -33 -69 7 l28
20 -28 1 c-31 0 -77 39 -77 65 0 9 12 27 26 40 24 22 100 65 116 65 4 0 19
-17 33 -37z m-3429 -9 c24 -14 44 -31 44 -37 0 -7 -10 -31 -22 -54 -27 -51
-44 -54 -123 -19 -66 30 -70 48 -20 99 43 44 62 46 121 11z m3537 -16 c10 -16
14 -28 9 -28 -8 0 -32 43 -32 57 0 7 1 6 23 -29z m-3586 -135 c22 -14 32 -43
16 -43 -10 0 -113 42 -137 56 -10 6 -16 16 -12 22 8 13 95 -11 133 -35z m-92
-32 c59 -27 87 -53 72 -67 -7 -7 -131 62 -147 81 -19 23 2 19 75 -14z m3626 5
c-11 -13 -122 -56 -144 -56 -16 0 16 32 43 42 29 12 79 25 99 27 11 1 11 -2 2
-13z m329 -7 c0 -7 -7 -17 -16 -24 -16 -11 -15 -14 4 -41 23 -32 53 -149 58
-229 9 -151 23 -277 31 -288 16 -19 23 -61 14 -76 -15 -24 -119 -8 -150 23
-22 22 -26 37 -32 123 -3 54 -9 105 -12 113 -3 8 -8 31 -11 50 -5 26 -3 31 5
20 8 -11 9 -2 4 34 -8 55 -44 180 -51 174 -2 -3 3 -27 11 -53 8 -27 13 -51 11
-52 -5 -5 -66 151 -66 168 0 27 24 39 80 39 32 1 63 7 74 15 24 18 46 19 46 4z
m-263 -76 c18 -55 12 -67 -46 -85 -87 -28 -103 -27 -115 6 -10 26 -8 31 22 56
32 26 79 47 114 49 9 1 20 -10 25 -26z m-3724 -3 c30 -11 63 -30 73 -41 17
-19 17 -23 3 -47 -16 -28 -29 -30 -94 -18 -23 5 -21 3 10 -9 22 -9 47 -22 55
-30 13 -13 12 -15 -7 -15 -25 0 -173 36 -181 44 -12 12 10 20 51 18 42 -2 42
-2 16 13 -25 13 -26 17 -15 47 12 35 24 58 31 58 2 0 29 -9 58 -20z m3767 -95
c0 -18 -25 -29 -117 -50 -65 -15 -98 -9 -71 12 19 16 129 51 161 52 18 1 27
-4 27 -14z m29 -139 c6 -25 11 -58 11 -74 0 -28 -3 -30 -52 -36 -106 -12 -106
-12 -124 50 -10 36 -13 59 -6 66 16 16 85 37 123 38 35 0 37 -2 48 -44z
m-3801 17 c18 -4 22 -12 22 -44 0 -22 -6 -55 -14 -73 l-14 -33 -53 8 c-89 12
-109 23 -109 61 0 18 9 48 21 67 20 33 21 33 72 27 29 -4 62 -10 75 -13z m-89
-154 c138 -24 133 -54 -6 -37 -98 12 -120 19 -109 37 9 14 33 14 115 0z m3929
-1 c-5 -15 -54 -26 -134 -30 -68 -3 -85 11 -34 29 48 16 173 17 168 1z m-3928
-130 c0 -5 -14 -8 -31 -8 -16 0 -28 4 -25 9 7 11 56 9 56 -1z m21 -44 c23 -11
69 -87 69 -112 0 -13 -228 -22 -322 -13 -16 2 -6 19 41 70 72 77 136 94 212
55z m3926 -10 c18 -14 33 -29 33 -33 0 -4 11 -20 26 -36 14 -15 23 -29 21 -31
-2 -2 -41 -8 -88 -14 -46 -5 -112 -15 -146 -23 -60 -14 -61 -14 -73 8 -24 44
25 127 90 154 36 15 99 4 137 -25z m93 -253 c14 -28 13 -31 -15 -31 -18 0 -25
5 -25 18 0 35 24 43 40 13z m-3933 -156 c3 -9 3 -18 0 -21 -8 -8 -200 -33
-209 -27 -5 2 -8 8 -8 13 0 37 203 69 217 35z m3735 -7 c62 -10 92 -27 75 -44
-12 -12 -207 31 -207 46 0 13 46 13 132 -2z m-207 -78 c-28 -119 -76 -237
-147 -361 -28 -49 -55 -92 -61 -96 -5 -3 2 14 17 38 50 82 118 233 159 356 22
68 42 122 43 120 1 -1 -3 -27 -11 -57z m228 -36 c24 -9 27 -28 10 -62 -11 -23
-23 -32 -39 -32 -27 0 -107 30 -100 38 3 2 1 13 -5 24 -19 34 7 51 67 44 29
-3 59 -9 67 -12z m-3738 -24 c0 -14 7 -28 18 -32 31 -13 18 -36 -28 -52 -25
-9 -64 -23 -88 -31 -56 -20 -67 -19 -67 4 0 14 13 24 45 37 25 9 44 19 42 21
-3 2 -17 -1 -32 -7 -38 -14 -71 15 -61 53 7 28 32 35 121 33 46 -1 50 -3 50
-26z m-207 -135 c37 -111 113 -272 180 -384 28 -47 49 -88 46 -92 -2 -5 4 -13
15 -18 10 -6 35 -33 55 -60 36 -48 47 -102 30 -145 -13 -35 -74 -15 -130 42
-17 17 -41 32 -53 32 -14 0 -20 4 -15 12 5 8 2 9 -10 5 -10 -4 -19 -1 -22 8
-6 15 27 52 78 88 22 17 21 17 -42 11 -57 -5 -67 -3 -84 14 -10 12 -15 25 -12
30 3 6 -5 13 -18 16 -14 3 -29 19 -37 38 -7 18 -16 35 -19 38 -12 9 -120 248
-118 258 1 4 -6 21 -15 39 -23 43 -21 60 6 78 13 8 30 27 38 42 8 14 27 34 44
44 39 24 45 17 83 -96z m3862 62 c61 -19 76 -27 78 -45 4 -28 -7 -28 -87 4
-86 33 -111 46 -111 56 0 14 42 9 120 -15z m-3604 -104 c20 -26 18 -30 -23
-53 -21 -12 -29 -18 -18 -15 11 4 37 9 58 12 36 5 39 4 35 -18 -2 -19 -17 -28
-90 -53 -49 -16 -91 -27 -94 -23 -11 11 6 44 29 56 20 10 19 11 -10 5 -26 -4
-32 -1 -38 15 -11 37 3 57 53 73 63 21 82 21 98 1z m3612 -10 c21 -5 23 -10
18 -37 -10 -46 -20 -52 -66 -31 -53 24 -66 40 -50 60 13 16 58 19 98 8z m-83
-78 c60 -29 80 -48 71 -70 -5 -13 -19 -9 -85 24 -83 42 -110 71 -65 71 14 0
49 -11 79 -25z m-3420 -110 l35 -34 -56 -43 c-91 -69 -93 -70 -108 -65 -21 8
-46 90 -34 111 9 16 98 64 121 65 4 1 23 -15 42 -34z m3390 0 c20 -8 38 -21
41 -29 8 -20 -36 -96 -55 -96 -17 0 -144 91 -137 97 2 3 18 -3 35 -11 39 -21
44 -20 38 5 -6 23 10 48 31 49 7 0 28 -7 47 -15z m-3306 -157 c5 -13 6 -27 4
-32 -3 -4 9 -5 26 -1 53 11 37 -18 -44 -84 -41 -34 -79 -61 -84 -61 -19 0 -22
20 -6 44 15 23 15 24 -3 20 -20 -6 -36 9 -46 42 -5 17 3 28 46 57 60 43 95 47
107 15z m3212 1 c27 -12 49 -28 49 -36 0 -23 -31 -63 -49 -63 -20 0 -102 69
-83 70 6 0 12 8 12 18 0 17 8 32 17 32 3 0 27 -10 54 -21z m-231 7 c0 -2 -8
-10 -17 -17 -16 -13 -17 -12 -4 4 13 16 21 21 21 13z m-75 -84 c-22 -20 -30
-26 -20 -13 34 42 50 58 55 54 2 -2 -14 -20 -35 -41z m215 3 c54 -27 83 -57
78 -81 -6 -35 -30 -24 -101 46 -76 75 -71 82 23 35z m-3006 -71 c14 -5 14 -9
0 -35 -18 -36 -80 -97 -107 -105 -11 -4 -23 0 -28 7 -19 30 -8 58 37 98 46 40
66 47 98 35z m2948 -46 c29 3 38 0 48 -17 9 -18 7 -27 -10 -51 l-22 -30 -30
17 c-33 20 -88 78 -88 93 0 6 14 5 33 -3 17 -8 48 -12 69 -9z m-2852 -33 c0
-28 -28 -70 -75 -114 -48 -44 -61 -47 -79 -17 -9 15 0 28 57 82 66 63 97 79
97 49z m2731 -36 c16 -11 41 -36 55 -55 26 -34 26 -35 8 -49 -27 -20 -31 -19
-49 19 -9 18 -29 46 -45 61 -17 16 -30 32 -30 37 0 15 32 8 61 -13z m-2891
-147 c0 -11 -47 -22 -96 -22 l-34 0 0 63 c0 34 -3 73 -6 87 -5 20 9 10 65 -46
39 -40 71 -76 71 -82z m307 98 c29 -11 63 -55 63 -84 0 -20 -36 -43 -78 -49
-33 -5 -119 -71 -121 -93 -1 -6 -16 -17 -33 -25 -18 -8 -33 -18 -33 -24 0 -5
30 -13 68 -17 65 -6 132 -34 180 -76 22 -20 22 -21 -13 -74 l-30 -45 -41 38
c-22 21 -63 48 -90 60 -27 13 -49 28 -49 35 0 6 -7 17 -15 24 -8 7 -13 15 -10
19 2 4 -15 6 -38 4 -26 -2 -59 4 -88 16 -25 11 -55 17 -67 14 -12 -3 -22 -1
-22 5 0 18 132 132 152 132 14 0 25 -13 35 -40 9 -22 21 -39 27 -37 6 2 12 36
14 79 2 67 6 78 30 100 46 43 104 57 159 38z m1981 -210 c-96 -50 -267 -114
-343 -130 -90 -19 -73 -6 33 24 101 30 269 93 331 126 20 11 41 19 46 19 6 0
-25 -18 -67 -39z m-1791 -27 c8 -20 -42 -119 -65 -128 -23 -9 -46 19 -38 47 6
25 71 98 87 98 5 0 13 -7 16 -17z m90 -33 c-8 -38 -66 -140 -84 -147 -8 -3
-21 1 -29 9 -12 12 -10 20 17 63 35 56 78 105 92 105 5 0 7 -13 4 -30z m1960
-34 c28 -35 30 -43 18 -55 -18 -18 -39 -3 -66 50 -41 81 -13 84 48 5z m-1717
44 c8 -5 11 -10 5 -10 -5 0 -17 5 -25 10 -8 5 -10 10 -5 10 6 0 17 -5 25 -10z
m1900 0 c12 -7 8 -10 -15 -10 -16 0 -37 5 -45 10 -12 7 -8 10 15 10 17 0 37
-5 45 -10z m-274 -79 c42 -62 44 -84 8 -79 -21 2 -30 14 -49 61 -13 31 -27 67
-30 79 -7 20 -6 20 15 5 12 -8 37 -38 56 -66z m-1460 25 c43 -14 72 -25 64
-25 -18 -1 -170 47 -154 48 5 1 46 -10 90 -23z m-196 -121 c-6 -7 -14 -32 -18
-56 -7 -39 -11 -44 -32 -41 -14 1 -28 6 -33 11 -9 9 21 83 60 142 l28 44 3
-43 c2 -24 -2 -49 -8 -57z m307 89 c-3 -3 -12 -4 -19 -1 -8 3 -5 6 6 6 11 1
17 -2 13 -5z m1134 -103 c30 -66 29 -77 -6 -83 -16 -2 -21 3 -23 32 -2 19 -7
39 -12 45 -13 16 -30 87 -23 98 9 14 30 -17 64 -92z m-1533 83 c28 -8 28 -31
1 -88 -19 -42 -22 -44 -49 -36 -58 17 -60 23 -30 88 19 43 31 48 78 36z m1085
-1 c-7 -2 -19 -2 -25 0 -7 3 -2 5 12 5 14 0 19 -2 13 -5z m587 -25 c28 -46 25
-55 -20 -78 -51 -26 -64 -25 -78 5 -20 44 -15 84 11 89 12 3 31 7 42 9 11 3
21 5 23 6 1 0 11 -14 22 -31z m-857 -19 c31 -16 77 -60 77 -74 0 -16 -40 -52
-72 -64 -16 -6 -28 -17 -28 -25 0 -13 -57 -43 -72 -38 -7 2 -12 -22 -9 -41 3
-19 -25 1 -46 33 -27 39 -30 105 -7 138 14 21 109 82 127 82 5 0 18 -5 30 -11z
m-497 -51 c-4 -29 -10 -71 -13 -93 -6 -50 -15 -59 -46 -51 l-25 6 23 73 c37
121 73 159 61 65z m-456 -20 c221 -108 489 -186 690 -203 108 -9 118 -12 135
-45 8 -16 15 -30 15 -32 0 -5 -233 10 -303 20 -150 22 -360 84 -397 118 -9 7
-42 16 -75 20 -32 4 -70 13 -84 21 -15 7 -45 13 -68 13 -36 0 -43 -4 -52 -27
-9 -23 -10 -14 -6 47 5 68 26 126 43 117 4 -2 50 -24 102 -49z m1422 30 c19
-29 49 -129 42 -140 -3 -4 -16 -8 -28 -8 -20 0 -24 6 -29 43 -3 23 -9 61 -13
85 -7 47 5 56 28 20z m-1049 -26 c-1 -42 -21 -89 -39 -96 -7 -3 -28 0 -45 6
-29 10 -31 13 -26 50 7 55 32 80 76 76 34 -3 36 -5 34 -36z m282 15 c3 -12 5
-58 3 -102 l-3 -80 -29 -3 -29 -4 6 66 c7 74 26 146 38 146 5 0 11 -10 14 -23z
m585 -57 c5 -19 10 -54 10 -77 0 -34 -4 -43 -21 -48 -14 -5 -25 -2 -30 6 -11
17 -12 173 -2 183 10 10 31 -21 43 -64z m345 40 c24 -46 19 -67 -16 -79 -64
-22 -76 -16 -84 40 -8 58 0 69 52 69 26 0 36 -6 48 -30z m268 -67 c3 -32 9
-69 13 -82 5 -17 4 -22 -4 -17 -7 4 -12 21 -12 37 0 22 -4 28 -12 22 -7 -4
-22 -9 -32 -10 -38 -6 -192 -56 -226 -73 -20 -10 -57 -21 -82 -25 -35 -5 -49
-13 -54 -27 -3 -11 -12 -17 -19 -14 -8 3 -19 -2 -27 -11 -11 -14 -13 -14 -18
4 -5 19 -8 19 -65 7 -33 -7 -109 -16 -170 -20 l-110 -6 -33 -36 -33 -37 21 55
c32 83 37 86 158 99 185 21 309 52 499 122 76 28 145 55 153 60 36 21 47 11
53 -48z m-1275 -11 c4 -67 -6 -81 -55 -73 -36 6 -38 9 -37 43 2 53 28 90 62
86 25 -3 27 -7 30 -56z m786 -9 c1 -43 -2 -48 -27 -57 -36 -13 -47 2 -47 66 0
43 2 47 28 50 38 5 46 -5 46 -59z m-1651 -13 c-5 -19 -23 -39 -23 -25 0 9 20
45 24 45 2 0 2 -9 -1 -20z m1292 -80 c-10 -11 -21 -17 -24 -14 -3 3 3 12 13
20 28 20 32 17 11 -6z m-696 -190 c30 -8 38 -25 15 -34 -14 -6 -104 37 -104
49 0 5 44 -3 89 -15z"/>
<path d="M2370 4159 c-330 -36 -616 -152 -875 -355 -83 -64 -183 -162 -232
-225 -124 -162 -155 -206 -205 -294 -172 -303 -253 -685 -209 -993 14 -91 60
-284 72 -296 5 -6 9 -17 9 -25 0 -32 100 -223 161 -308 209 -297 413 -483 669
-615 167 -86 343 -141 535 -169 132 -19 438 -16 550 5 239 47 537 172 705 297
106 78 299 269 372 369 161 218 261 469 309 773 8 50 10 134 6 240 -6 190 -37
329 -113 519 -79 197 -148 312 -284 473 -220 261 -453 421 -770 528 -201 69
-487 100 -700 76z m121 -204 c38 -20 59 -53 59 -91 0 -39 35 -218 49 -258 13
-33 14 -49 2 -42 -21 14 -29 -158 -8 -189 29 -43 45 -110 42 -167 -3 -41 0
-59 10 -68 8 -7 15 -21 15 -32 0 -23 40 -79 52 -72 4 3 8 0 8 -6 0 -6 5 -8 10
-5 27 17 3 -26 -57 -102 -69 -86 -101 -134 -126 -188 -8 -16 -30 -55 -50 -86
-20 -31 -33 -60 -29 -64 4 -3 0 -12 -8 -18 -39 -32 -88 -121 -135 -251 -18
-50 -61 -154 -95 -231 -82 -186 -100 -238 -107 -312 -6 -61 -6 -62 -33 -57
-23 5 -37 -4 -91 -56 -67 -64 -180 -130 -224 -130 -21 0 -25 5 -25 30 0 23 7
33 30 45 52 27 70 68 71 165 l1 85 20 -62 c21 -66 41 -83 77 -64 28 15 52 14
65 -4 19 -26 19 95 1 170 -9 36 -32 103 -50 148 -28 68 -37 82 -54 80 -19 -3
-19 0 7 28 15 17 60 54 100 81 61 41 78 59 98 101 13 29 24 58 24 65 0 16 5
15 38 -4 l27 -16 -22 20 c-27 24 -28 35 -7 93 17 50 71 234 104 359 59 221 96
356 120 435 36 118 102 406 111 484 10 87 9 96 -9 120 -63 84 -246 26 -267
-86 -4 -24 -3 -39 4 -41 6 -2 11 -9 11 -15 0 -19 33 -47 57 -47 16 0 23 6 23
19 0 11 4 22 8 25 15 9 52 -24 52 -45 0 -29 -44 -69 -77 -69 -32 0 -93 34 -93
52 0 6 -3 9 -6 5 -15 -14 -40 32 -42 78 -4 92 54 170 150 201 49 16 127 10
169 -11z m304 -5 c75 -36 115 -99 115 -179 0 -72 -68 -151 -130 -151 -34 0
-80 35 -80 61 0 54 47 79 72 39 27 -43 66 -17 73 49 2 22 6 45 10 51 10 16
-35 71 -71 86 -52 22 -110 17 -161 -13 -37 -21 -47 -24 -54 -12 -13 21 -11 34
9 52 46 41 150 50 217 17z m-846 -116 c18 -14 31 -35 31 -47 -1 -21 -2 -20
-21 5 -37 49 -128 46 -164 -6 -36 -51 -2 -130 60 -141 42 -8 94 26 101 65 4
16 13 35 20 41 11 9 14 5 14 -21 0 -66 -65 -130 -131 -130 -31 0 -83 43 -103
84 -14 29 -15 43 -6 75 24 91 132 132 199 75z m1341 6 c29 -21 60 -84 60 -123
0 -33 -35 -84 -69 -102 -42 -21 -82 -19 -121 8 -78 52 -89 135 -25 202 28 30
39 35 80 35 31 0 56 -7 75 -20z m-187 -12 c-6 -7 -12 -20 -15 -28 -3 -9 -7
-10 -11 -3 -4 6 0 19 9 27 18 19 31 21 17 4z m-750 -220 c-2 -5 -22 -8 -43 -8
-21 0 -41 3 -43 8 -3 4 17 7 43 7 26 0 46 -3 43 -7z m482 -3 c-16 -8 -37 -14
-45 -14 -8 0 1 7 20 14 46 18 64 17 25 0z m-1160 -47 c19 -1 35 -4 35 -8 0 -4
17 -10 39 -14 21 -3 50 -12 65 -20 l27 -14 -35 -6 c-53 -10 -305 -5 -312 6 -8
13 -1 19 25 21 11 1 21 5 21 9 0 4 9 8 21 8 13 0 18 4 13 12 -5 7 -2 9 8 6 8
-4 21 -2 28 2 8 5 17 7 22 4 4 -2 23 -5 43 -6z m-415 -38 c-6 -12 -14 -19 -17
-17 -2 3 1 15 7 27 6 12 14 19 17 17 2 -3 -1 -15 -7 -27z m818 -2 c18 -18 14
-30 -10 -26 -11 2 -22 11 -24 21 -3 20 16 23 34 5z m1017 -2 c12 -12 9 -15
-23 -20 -20 -4 -45 -9 -54 -12 -26 -8 -22 13 3 21 17 6 19 9 8 16 -10 6 -4 9
19 9 18 0 40 -6 47 -14z m376 -2 c13 -16 -147 -32 -164 -15 -8 8 -4 11 16 11
15 0 27 5 27 11 0 14 108 9 121 -7z m-1517 0 c20 -8 21 -24 2 -24 -8 0 -16 7
-20 15 -6 17 -4 18 18 9z m60 -14 c-21 -8 -37 -3 -29 10 3 4 15 6 27 2 21 -5
21 -6 2 -12z m1211 0 c4 -6 -15 -10 -50 -10 -35 0 -54 4 -50 10 3 6 26 10 50
10 24 0 47 -4 50 -10z m-1163 -35 c3 -3 3 -16 1 -29 -4 -20 -14 -25 -74 -35
-185 -30 -295 -117 -292 -228 1 -40 23 -80 36 -66 3 3 12 -10 20 -28 8 -19 21
-40 30 -48 10 -7 17 -20 17 -27 0 -8 9 -31 20 -51 21 -40 22 -37 22 37 -1 19
2 26 4 15 39 -160 157 -531 190 -598 19 -37 34 -74 34 -82 0 -14 -124 -115
-142 -115 -27 0 -53 58 -118 268 -30 94 -38 115 -81 207 -13 28 -24 57 -24 67
0 9 -3 20 -7 24 -5 4 -8 24 -8 44 0 20 -4 40 -9 46 -6 5 -12 25 -14 44 -2 19
-10 46 -18 60 -15 27 -16 32 -18 58 0 10 -9 27 -19 38 -11 12 -19 38 -21 69
-5 90 -59 168 -149 214 -47 24 -152 55 -159 47 -4 -3 -12 -1 -20 5 -19 16 -16
57 5 62 24 7 788 8 794 2z m1772 -17 c15 -24 -2 -38 -59 -49 -64 -12 -169 -64
-217 -107 -48 -44 -82 -108 -98 -187 -14 -73 -26 -121 -52 -203 -11 -35 -18
-77 -16 -93 3 -17 0 -29 -6 -29 -26 0 -98 32 -139 60 l-43 31 20 57 c16 45 20
82 21 175 0 64 1 117 3 117 2 0 12 -5 22 -10 13 -7 21 -7 25 0 3 5 14 10 23
10 10 0 25 13 35 29 l17 29 -37 32 c-50 45 -132 79 -220 93 -70 11 -73 12 -73
39 l0 28 391 -2 c358 -3 393 -4 403 -20z m-1168 -113 c-4 -12 -36 92 -35 114
0 9 9 -11 19 -44 11 -33 18 -64 16 -70z m-1691 -287 c-9 -38 -34 -92 -41 -85
-6 5 35 117 43 117 2 0 1 -15 -2 -32z m2594 -129 c-11 -41 -23 -89 -26 -106
-5 -32 -33 -48 -33 -19 0 17 47 162 61 188 20 37 19 12 -2 -63z m-2281 50 c2
-11 -13 -23 -47 -37 -77 -32 -117 -68 -151 -135 -37 -75 -41 -159 -10 -237 24
-60 24 -66 6 -51 -8 6 -24 35 -36 64 -32 73 -33 183 -2 252 35 77 66 104 167
146 47 20 69 20 73 -2z m2573 0 c105 -31 164 -89 190 -190 26 -98 24 -155 -6
-236 -38 -99 -87 -157 -245 -287 -150 -123 -264 -275 -294 -392 -24 -95 -21
-133 14 -174 17 -19 36 -34 42 -32 6 2 18 -4 27 -12 73 -67 205 -18 252 92 24
55 24 99 0 154 -18 43 -74 108 -92 108 -5 0 -9 5 -9 10 0 21 41 9 75 -22 40
-35 79 -103 71 -124 -3 -7 0 -27 5 -43 14 -40 -11 -127 -48 -172 -36 -42 -116
-79 -174 -79 -58 0 -127 42 -166 101 -26 39 -28 50 -28 139 0 104 8 130 74
245 59 102 134 192 198 236 67 47 66 67 -7 149 -90 99 -100 235 -23 308 43 40
103 45 140 10 25 -23 30 -67 11 -86 -16 -16 -29 -15 -22 2 8 21 -35 56 -68 56
-36 0 -75 -40 -84 -86 -9 -46 11 -98 60 -153 22 -26 53 -62 68 -81 l26 -35 55
54 c65 63 119 169 125 246 5 59 -19 119 -70 177 -32 35 -117 88 -143 88 -18 0
-38 27 -30 40 4 6 13 9 20 6 7 -2 33 -10 56 -17z m-1053 -101 c1 -23 0 -39 -4
-36 -3 4 -14 0 -23 -9 -18 -18 -26 -119 -10 -129 5 -3 7 -10 4 -15 -3 -5 1 -6
9 -3 9 3 16 1 16 -6 0 -6 5 -8 12 -4 6 4 8 3 5 -4 -10 -15 13 -111 35 -147 10
-16 18 -25 18 -20 0 6 10 -3 21 -20 l21 -30 -5 35 c-5 32 -5 33 5 10 72 -162
88 -180 120 -138 10 13 21 33 24 46 8 29 15 28 55 -8 19 -17 48 -38 64 -47 50
-26 201 -158 185 -161 -10 -2 -24 -36 -39 -95 -13 -51 -35 -132 -48 -182 -13
-49 -25 -120 -26 -156 -2 -57 1 -70 25 -101 15 -20 41 -42 58 -49 34 -16 41
-28 33 -58 -4 -17 -11 -20 -32 -15 -42 10 -179 86 -204 112 l-22 25 30 -7 c79
-19 83 -19 89 1 3 11 2 41 -3 68 -10 52 9 142 64 310 14 44 28 85 29 90 19 68
19 66 -15 102 -56 58 -67 60 -85 16 -9 -21 -38 -90 -64 -153 -71 -168 -90
-234 -90 -307 l0 -65 -30 7 c-20 4 -39 2 -54 -8 -22 -15 -23 -15 -21 21 3 60
-21 156 -64 255 -44 104 -62 152 -126 339 -51 147 -63 173 -102 215 -15 17
-41 47 -58 67 -37 44 -59 45 -104 4 -34 -32 -22 -15 106 154 26 35 59 56 69
45 3 -2 0 -16 -5 -31 -14 -35 -5 -33 30 7 20 22 28 39 24 55 -4 15 -1 22 10
22 8 0 24 9 35 20 29 29 35 25 38 -22z m-1228 8 c0 -3 -4 -8 -10 -11 -5 -3
-10 -1 -10 4 0 6 5 11 10 11 6 0 10 -2 10 -4z m-219 -133 c36 -41 33 -51 -10
-29 -57 30 -114 10 -81 -29 12 -15 6 -35 -11 -35 -5 0 -22 11 -36 25 -23 21
-26 28 -17 52 11 33 63 62 99 55 14 -2 39 -20 56 -39z m1490 -38 c11 -43 18
-80 15 -82 -3 -3 -8 8 -11 23 -4 16 -11 40 -17 54 -12 29 -22 97 -13 88 4 -3
15 -41 26 -83z m387 22 c-2 -14 -16 -26 -41 -36 -20 -7 -40 -11 -43 -8 -3 3 6
24 21 46 22 36 28 40 46 31 13 -7 19 -19 17 -33z m256 -72 c11 -8 17 -17 15
-20 -3 -2 -21 9 -40 26 -33 29 -14 25 25 -6z m-101 -1 c-1 -10 4 -22 10 -26 8
-5 8 -8 -3 -8 -13 0 -13 -1 0 -10 8 -5 10 -10 4 -10 -5 0 -19 7 -30 15 -21 16
-48 20 -40 6 4 -5 2 -11 -2 -13 -4 -1 -26 -56 -47 -120 -39 -116 -39 -118 -20
-133 11 -9 -5 -5 -37 9 -60 26 -148 82 -148 94 1 4 12 38 25 76 20 58 28 71
55 83 18 7 43 13 56 13 12 0 26 5 29 10 3 6 16 10 28 10 12 0 40 7 62 15 47
17 61 14 58 -11z m-2070 -9 c-7 -21 -50 -30 -76 -17 -21 11 -21 11 3 6 18 -4
31 1 44 15 20 22 39 19 29 -4z m2540 -17 c-2 -5 -15 -8 -28 -8 -13 0 -26 3
-28 8 -3 4 10 7 28 7 18 0 31 -3 28 -7z m-419 -146 c-24 -78 -32 -114 -39
-169 -8 -59 -31 -74 -32 -20 -1 33 36 172 57 219 20 44 30 22 14 -30z m-2184
21 c0 -46 11 -73 30 -73 9 0 38 -11 63 -25 44 -23 77 -25 77 -4 0 5 9 9 20 9
25 0 25 -12 1 -34 -19 -17 -19 -18 5 -69 13 -29 24 -57 24 -63 0 -7 21 -17 48
-24 l47 -13 -55 -9 c-30 -4 -89 -7 -130 -6 -66 3 -78 0 -97 -19 -28 -28 -53
-29 -86 -3 -19 15 -40 20 -90 20 l-66 0 9 -31 c5 -17 17 -43 26 -56 l16 -25
44 43 c50 49 73 46 28 -4 -58 -62 -59 -64 -27 -80 15 -8 43 -18 61 -22 l32 -7
0 56 c0 31 5 56 10 56 6 0 10 -19 10 -42 0 -67 10 -75 63 -54 69 26 73 36 27
81 -51 50 -41 67 12 20 45 -41 59 -37 78 21 6 19 16 34 21 34 14 0 11 -48 -7
-81 -14 -28 -14 -33 1 -55 8 -13 23 -24 31 -24 19 0 72 -36 96 -65 23 -26 48
-113 48 -162 0 -57 -26 -134 -55 -166 -56 -59 -158 -75 -230 -34 -52 29 -107
110 -103 151 4 43 19 39 35 -11 17 -50 68 -98 122 -114 67 -20 115 4 170 86
32 47 32 63 1 100 -20 25 -42 108 -34 130 8 19 -32 65 -56 65 -9 0 -27 11 -39
24 l-22 24 -51 -34 c-29 -20 -62 -34 -80 -34 l-31 0 7 -49 c4 -27 2 -52 -3
-55 -12 -8 -21 18 -21 65 0 33 -3 39 -20 39 -20 0 -74 26 -112 52 -14 10 -22
8 -43 -12 -28 -26 -35 -17 -8 12 16 18 15 21 -5 64 -12 24 -22 53 -22 64 0 19
-32 44 -43 34 -9 -9 -48 6 -42 16 3 5 19 11 36 15 20 5 34 16 41 33 5 15 17
42 26 60 14 31 14 33 -6 55 -12 13 -22 26 -22 30 0 14 24 6 47 -15 21 -19 24
-20 40 -6 10 9 41 27 68 40 42 19 50 28 53 53 4 41 10 55 22 55 5 0 10 -12 10
-27z m2420 -217 c0 -3 -7 -12 -16 -20 -18 -19 -68 -22 -62 -4 5 15 78 37 78
24z m200 -17 c-9 -16 -8 -26 5 -45 17 -26 35 -30 52 -13 6 6 26 9 44 7 26 -2
34 -8 34 -23 0 -11 4 -26 8 -33 6 -8 -3 -7 -26 4 -40 19 -66 13 -74 -15 -4
-17 -8 -18 -24 -8 -10 6 -19 17 -19 24 0 7 -4 13 -9 13 -17 0 -19 74 -3 93 20
23 25 22 12 -4z m-2020 -189 c-32 -24 -42 -14 -11 11 13 11 27 17 30 14 3 -4
-5 -15 -19 -25z m2165 11 c-3 -6 -14 -11 -23 -11 -13 0 -13 2 4 14 21 15 30
14 19 -3z m25 -15 c-8 -8 -26 -17 -40 -21 -23 -6 -23 -5 5 14 35 23 56 27 35
7z m-339 -217 c17 -17 20 -28 14 -57 -8 -44 -26 -61 -60 -54 -49 9 -39 41 13
42 12 0 22 4 22 9 0 19 -32 41 -60 41 -37 0 -48 18 -18 29 38 16 67 12 89 -10z
m-2213 -1 c17 -17 15 -28 -7 -28 -11 0 -33 -12 -50 -26 -45 -37 -82 -17 -48
27 28 36 82 50 105 27z m823 -70 c-28 -79 -5 -145 64 -188 44 -27 50 -70 10
-70 -52 0 -226 93 -208 111 11 11 63 14 86 4 12 -5 17 -2 18 11 2 74 31 213
37 180 2 -9 -1 -31 -7 -48z m-851 -7 c0 -12 -20 -25 -27 -18 -7 7 6 27 18 27
5 0 9 -4 9 -9z m1381 -81 c83 -10 88 -27 27 -87 -45 -44 -123 -83 -164 -83
-35 0 -34 52 1 68 38 17 65 69 66 127 l1 50 12 -35 c11 -31 17 -36 57 -40z
m-1401 40 c0 -5 -7 -10 -15 -10 -8 0 -15 5 -15 10 0 6 7 10 15 10 8 0 15 -4
15 -10z m2401 -118 c-5 -10 -29 -32 -52 -47 -34 -24 -55 -30 -110 -33 -58 -4
-75 0 -123 23 -74 36 -83 52 -11 19 94 -43 204 -32 268 26 38 35 41 36 28 12z
m-2328 -63 c-5 -5 -37 -12 -69 -14 l-59 -4 59 9 c32 5 61 12 64 15 3 3 8 5 11
5 3 0 0 -5 -6 -11z m615 -26 c-15 -2 -42 -2 -60 0 -18 2 -6 4 27 4 33 0 48 -2
33 -4z m-273 -33 c-3 -5 -16 -10 -28 -10 -18 0 -19 2 -7 10 20 13 43 13 35 0z
m372 4 c-3 -3 -12 -4 -19 -1 -8 3 -5 6 6 6 11 1 17 -2 13 -5z m183 -6 c0 -15
-22 -18 -92 -11 -64 7 -68 8 -33 13 57 7 125 6 125 -2z m353 1 c45 -1 48 -2
22 -9 -53 -14 -92 -11 -99 6 -5 12 -2 15 10 10 8 -3 39 -7 67 -7z m390 4 c-13
-2 -33 -2 -45 0 -13 2 -3 4 22 4 25 0 35 -2 23 -4z m193 -20 c-3 -3 -40 -2
-83 3 l-78 9 80 5 c72 4 98 -1 81 -17z m-1546 7 c0 -12 -47 -14 -54 -2 -2 4 9
9 25 10 16 1 29 -2 29 -8z m-80 -118 c0 -4 -5 -13 -11 -19 -10 -10 7 -80 30
-121 10 -18 41 66 41 110 0 25 4 28 31 28 26 0 29 -3 24 -20 -7 -21 21 -120
34 -120 4 0 15 23 25 51 14 37 16 53 7 62 -20 20 -12 27 29 27 45 0 50 -10 20
-40 -11 -11 -20 -28 -20 -38 0 -18 -45 -154 -59 -180 -11 -20 -24 2 -46 76
-10 34 -21 62 -25 62 -3 0 -17 -32 -30 -71 -18 -57 -25 -68 -35 -57 -10 10
-54 122 -81 206 -2 8 -13 16 -24 19 -23 6 -26 19 -7 26 20 9 97 8 97 -1z
m1058 -55 c2 -37 0 -47 -12 -47 -9 0 -16 8 -16 18 0 26 -20 42 -52 42 -55 0
-89 -63 -70 -129 20 -64 110 -94 127 -41 9 29 25 25 25 -6 0 -19 -7 -28 -30
-37 -16 -6 -30 -15 -30 -19 0 -4 -12 -8 -26 -8 -14 0 -23 4 -20 9 3 5 -8 14
-24 21 -74 30 -104 105 -70 174 27 56 66 77 140 73 l55 -3 3 -47z m677 43 c3
-6 -5 -14 -18 -19 -32 -12 -37 -28 -37 -119 0 -42 -4 -83 -9 -90 -6 -10 -26 6
-74 60 l-67 73 0 -68 c0 -51 4 -69 15 -73 29 -11 15 -24 -25 -21 -41 2 -46 6
-31 22 5 6 11 45 14 87 4 59 2 80 -9 89 -23 19 -16 30 18 27 25 -2 43 -16 84
-64 l52 -62 5 52 c3 34 0 58 -10 73 -8 12 -12 27 -8 33 8 13 92 13 100 0z
m-447 -75 c35 -38 39 -59 18 -110 -13 -31 -80 -85 -106 -85 -25 0 -90 58 -105
94 -18 43 -13 70 19 105 52 58 117 57 174 -4z m-928 31 c0 -8 -7 -16 -15 -20
-22 -8 -22 -164 1 -180 13 -10 6 -12 -35 -12 -50 0 -66 8 -36 20 12 4 15 24
15 90 0 65 -3 85 -15 90 -32 12 -13 26 35 26 36 0 50 -4 50 -14z m140 4 c0 -6
-7 -13 -15 -16 -12 -5 -15 -24 -15 -84 0 -44 5 -82 10 -85 20 -13 67 6 78 30
17 37 36 32 28 -7 -3 -18 -11 -37 -16 -42 -8 -8 -170 -18 -170 -11 0 2 7 16
15 31 20 39 20 147 0 164 -26 22 -16 30 35 30 28 0 50 -5 50 -10z m291 -28
c22 -24 29 -42 29 -71 0 -71 -80 -137 -139 -114 -18 6 -34 6 -49 0 -29 -13
-39 -2 -19 21 13 14 17 37 17 90 0 61 -3 74 -20 84 -37 23 -20 30 66 27 82 -4
87 -5 115 -37z m649 24 c0 -8 -6 -16 -12 -19 -16 -5 -13 -170 2 -175 24 -8 6
-17 -35 -17 -43 0 -56 7 -35 20 6 3 10 44 10 91 0 66 -3 86 -15 90 -31 12 -13
24 35 24 36 0 50 -4 50 -14z"/>
<path d="M3194 3823 c-36 -7 -68 -49 -67 -89 1 -39 15 -59 54 -80 44 -22 69
-17 105 22 36 38 41 58 23 98 -11 23 -65 58 -86 55 -4 -1 -18 -4 -29 -6z"/>
<path d="M1266 2403 c-3 -4 -6 -33 -6 -65 0 -79 17 -85 76 -27 24 24 41 46 36
50 -13 14 -100 48 -106 42z"/>
<path d="M1173 2380 c-24 -10 -43 -23 -43 -28 0 -16 78 -89 88 -83 9 5 17 82
13 119 -1 16 -8 15 -58 -8z"/>
<path d="M1359 2295 c-24 -26 -44 -52 -44 -58 0 -8 24 -13 63 -15 l62 -3 0 28
c-1 15 -9 43 -19 62 l-18 33 -44 -47z"/>
<path d="M1075 2300 c-8 -16 -15 -40 -15 -55 0 -24 2 -25 59 -25 33 0 63 5 67
11 6 10 -72 99 -88 99 -4 0 -14 -13 -23 -30z"/>
<path d="M1240 2205 c0 -8 5 -15 10 -15 6 0 10 7 10 15 0 8 -4 15 -10 15 -5 0
-10 -7 -10 -15z"/>
<path d="M2886 1284 c-24 -23 -21 -95 5 -128 24 -31 52 -33 79 -6 27 27 28
110 2 133 -23 21 -66 22 -86 1z"/>
<path d="M2406 1284 c-8 -20 -8 -102 0 -131 10 -38 60 -29 83 14 20 40 9 104
-23 125 -19 13 -54 9 -60 -8z"/>
<path d="M3192 4664 c10 -18 18 -39 17 -46 -3 -27 1 -61 8 -54 10 9 33 78 33
97 0 11 -14 20 -39 26 l-39 10 20 -33z"/>
<path d="M620 3778 c-22 -33 -30 -78 -15 -78 7 0 15 7 19 15 3 8 18 15 33 16
15 0 37 4 48 8 16 7 10 10 -28 16 -41 6 -47 10 -42 26 8 25 3 24 -15 -3z"/>
<path d="M4105 741 c-3 -6 -38 -31 -78 -58 -39 -26 -77 -52 -83 -58 -6 -5 -24
-20 -40 -32 -16 -12 -38 -29 -49 -38 -49 -39 27 7 91 55 36 28 90 66 120 85
30 19 54 39 54 45 0 13 -7 13 -15 1z"/>
<path d="M3805 530 c-3 -6 1 -7 9 -4 18 7 21 14 7 14 -6 0 -13 -4 -16 -10z"/>
<path d="M2838 213 c-4 -15 4 -18 53 -21 32 -1 60 2 64 7 3 6 -9 8 -30 4 -26
-4 -36 -2 -41 11 -8 21 -40 21 -46 -1z"/>
</g>
</svg>
